<svg width="20" height="18" viewBox="0 0 20 18" fill="none" xmlns="http://www.w3.org/2000/svg">
<g clip-path="url(#clip0_881_284)">
<path d="M17.3742 2.80067C17.2148 2.65066 16.9369 2.65039 16.7702 2.79436L16.1792 3.30485C16.021 3.44143 16.0229 3.65755 16.1733 3.80048C17.6138 5.16955 18.334 6.90585 18.3339 8.64214C18.3338 10.3782 17.6136 12.1142 16.1733 13.4831C16.0229 13.6261 16.021 13.8422 16.1792 13.9788L16.7702 14.4893C16.9369 14.6333 17.2148 14.633 17.3743 14.4829C19.1252 12.8354 20.0006 10.7384 20.0005 8.64137C20.0003 6.54471 19.125 4.44802 17.3742 2.80067Z" fill="#4B5563"/>
<path d="M1.66656 8.64165C1.6666 6.90552 2.3868 5.16943 3.82711 3.80049C3.97754 3.65753 3.97941 3.44144 3.82129 3.30486L3.23027 2.79437C3.06355 2.65036 2.78563 2.65067 2.62617 2.80069C0.875352 4.44817 -3.90612e-05 6.54509 1.30725e-09 8.64202C3.90638e-05 10.7388 0.875469 12.8356 2.62617 14.483C2.78559 14.633 3.06355 14.6333 3.23027 14.4893L3.82129 13.9788C3.97941 13.8422 3.97754 13.6261 3.82711 13.4831C2.38672 12.1141 1.66652 10.3779 1.66656 8.64165Z" fill="#4B5563"/>
<path d="M9.99969 7.56152H9.58301V8.28168H9.99969C10.2296 8.28168 10.4164 8.11991 10.4164 7.92158C10.4164 7.72326 10.2296 7.56152 9.99969 7.56152Z" fill="#4B5563"/>
<path d="M9.99969 9.00195H9.58301V9.72211H9.99969C10.2296 9.72211 10.4164 9.56034 10.4164 9.36201C10.4164 9.16369 10.2296 9.00195 9.99969 9.00195Z" fill="#4B5563"/>
<path d="M10.0049 2.1604C5.86953 2.1604 2.50488 5.06778 2.50488 8.64188C2.50488 12.216 5.86953 15.1234 10.0049 15.1234C14.1402 15.1234 17.5049 12.216 17.5049 8.64188C17.5049 5.06778 14.1402 2.1604 10.0049 2.1604ZM7.91668 10.0822C7.91668 10.2813 7.73031 10.4423 7.5 10.4423C7.26969 10.4423 7.08332 10.2813 7.08332 10.0822V9.72213H6.25V10.0822C6.25 10.2813 6.06363 10.4423 5.83332 10.4423C5.60301 10.4423 5.41664 10.2813 5.41664 10.0822V7.92173C5.41664 7.32604 5.97734 6.84148 6.66664 6.84148C7.35594 6.84148 7.91664 7.32604 7.91664 7.92173V10.0822H7.91668ZM11.25 9.36204C11.25 9.95772 10.6893 10.4423 10 10.4423H9.16668C8.93637 10.4423 8.75 10.2812 8.75 10.0822V7.20154C8.75 7.00251 8.93637 6.84145 9.16668 6.84145H10C10.6893 6.84145 11.25 7.32601 11.25 7.92169C11.25 8.1981 11.1291 8.45058 10.931 8.64185C11.1291 8.83319 11.25 9.08566 11.25 9.36204ZM13.3333 8.28179C14.0226 8.28179 14.5833 8.76635 14.5833 9.36204C14.5833 9.95772 14.0226 10.4423 13.3333 10.4423H12.5C12.2697 10.4423 12.0833 10.2812 12.0833 10.0822C12.0833 9.88315 12.2697 9.72209 12.5 9.72209H13.3333C13.5632 9.72209 13.75 9.56033 13.75 9.362C13.75 9.16367 13.5632 9.00191 13.3333 9.00191C12.644 9.00191 12.0833 8.51735 12.0833 7.92166C12.0833 7.32597 12.644 6.84141 13.3333 6.84141H14.1666C14.397 6.84141 14.5833 7.00247 14.5833 7.20151C14.5833 7.40054 14.397 7.5616 14.1666 7.5616H13.3333C13.1034 7.5616 12.9166 7.72337 12.9166 7.92169C12.9166 8.12002 13.1034 8.28179 13.3333 8.28179Z" fill="#4B5563"/>
<path d="M6.66668 7.56152C6.4368 7.56152 6.25 7.72329 6.25 7.92162V9.00186H7.08332V7.92162C7.08332 7.72329 6.89656 7.56152 6.66668 7.56152Z" fill="#4B5563"/>
</g>
<defs>
<clipPath id="clip0_881_284">
<rect width="20" height="17.284" fill="white"/>
</clipPath>
</defs>
</svg>
