<svg width="20" height="18" viewBox="0 0 20 18" fill="none" xmlns="http://www.w3.org/2000/svg">
<g clip-path="url(#clip0_882_306)">
<path d="M9.99902 10.8481C11.4099 10.8481 12.5537 9.85968 12.5537 8.64037C12.5537 7.42106 11.4099 6.43262 9.99902 6.43262C8.58811 6.43262 7.44434 7.42106 7.44434 8.64037C7.44434 9.85968 8.58811 10.8481 9.99902 10.8481Z" fill="#4B5563"/>
<path d="M19.699 7.949C19.4229 7.30996 18.7893 6.77626 18.0119 6.53421C16.5475 6.07409 14.8322 6.19866 13.0068 6.85795C13.4097 7.36419 13.6321 7.96131 13.6467 8.57556C13.6612 9.18982 13.4673 9.79431 13.0889 10.3144C13.7381 10.5131 14.3067 10.8701 14.726 11.3423C15.1453 11.8144 15.3972 12.3815 15.4514 12.9748C15.4514 12.9748 15.4596 13.0495 15.4576 13.2112C15.4558 13.4047 15.5216 13.5942 15.6463 13.755C15.7959 13.9535 16.0291 14.0939 16.2964 14.1464C16.5637 14.1989 16.8441 14.1593 17.0783 14.0362L17.099 14.0254C19.0557 12.798 20.6959 10.1662 19.699 7.949Z" fill="#4B5563"/>
<path d="M6.35066 8.64199C6.34983 8.05046 6.54268 7.4708 6.90691 6.96997C6.25864 6.77088 5.69095 6.41384 5.2724 5.94197C4.85386 5.4701 4.60237 4.90359 4.54831 4.31087C4.54831 4.31087 4.54011 4.23627 4.54206 4.07457C4.54384 3.88102 4.47809 3.69151 4.35339 3.53073C4.20379 3.33222 3.97063 3.19185 3.70331 3.13936C3.436 3.08687 3.15554 3.12638 2.92136 3.24953L2.90066 3.26033C0.944018 4.48675 -0.696217 7.1185 0.300658 9.33672C0.57683 9.97575 1.21042 10.5091 1.98777 10.7515C3.45222 11.212 5.16785 11.0871 6.99363 10.4274C6.57402 9.90271 6.34971 9.27982 6.35066 8.64199Z" fill="#4B5563"/>
<path d="M16.2394 2.52488L16.2273 2.50699C14.8077 0.816062 11.7628 -0.601425 9.196 0.260072C8.45655 0.498739 7.83936 1.04629 7.55929 1.71807C7.02647 2.98331 7.171 4.46527 7.93311 6.04243C8.51896 5.69382 9.21013 5.50114 9.92126 5.48818C10.6324 5.47522 11.3323 5.64256 11.9347 5.96951C12.1651 5.40919 12.5782 4.91851 13.1243 4.55674C13.6704 4.19498 14.3261 3.9776 15.012 3.93089C15.012 3.93089 15.0983 3.9238 15.2855 3.92548C15.5094 3.92697 15.7287 3.87016 15.9148 3.76244C16.1443 3.63304 16.3066 3.43149 16.3672 3.20049C16.4278 2.96949 16.3819 2.72717 16.2394 2.52488Z" fill="#4B5563"/>
<path d="M9.99999 11.7933C9.31516 11.794 8.64409 11.6271 8.06445 11.3119C7.83448 11.8729 7.42132 12.3643 6.87496 12.7265C6.3286 13.0888 5.67246 13.3065 4.98593 13.3533C4.98593 13.3533 4.8996 13.3603 4.71249 13.3587C4.48866 13.3571 4.26949 13.414 4.08359 13.5217C3.85388 13.651 3.69145 13.8525 3.63071 14.0835C3.56997 14.3145 3.6157 14.5569 3.7582 14.7593L3.7703 14.7772C5.18984 16.4681 8.23476 17.8856 10.8016 17.0241C11.541 16.7854 12.1582 16.2379 12.4387 15.5661C12.9711 14.3002 12.8266 12.8172 12.0633 11.239C11.4566 11.6006 10.7369 11.7939 9.99999 11.7933Z" fill="#4B5563"/>
</g>
<defs>
<clipPath id="clip0_882_306">
<rect width="20" height="17.284" fill="white"/>
</clipPath>
</defs>
</svg>
