<svg width="20" height="18" viewBox="0 0 20 18" fill="none" xmlns="http://www.w3.org/2000/svg">
<g clip-path="url(#clip0_882_331)">
<path d="M14.8967 0H5.10352C4.13426 0 3.3457 0.681467 3.3457 1.5191V15.7649C3.3457 16.6025 4.13426 17.284 5.10352 17.284H14.8967C15.8659 17.284 16.6545 16.6025 16.6545 15.7649V1.5191C16.6545 0.681467 15.866 0 14.8967 0ZM10.0001 2.44892C11.0685 2.44892 11.9346 3.1974 11.9346 4.1207C11.9346 5.04401 11.0685 5.79249 10.0001 5.79249C8.93172 5.79249 8.06562 5.04401 8.06562 4.1207C8.06562 3.1974 8.93172 2.44892 10.0001 2.44892ZM10.0001 15.0386C7.45293 15.0386 5.38066 13.2477 5.38066 11.0465C5.38066 8.84526 7.45293 7.05438 10.0001 7.05438C12.5473 7.05438 14.6196 8.84523 14.6196 11.0465C14.6196 13.2478 12.5473 15.0386 10.0001 15.0386Z" fill="#f1f5f9"/>
<path d="M9.99965 9.3623C8.92504 9.3623 8.05078 10.1178 8.05078 11.0465C8.05078 11.9752 8.92504 12.7307 9.99965 12.7307C11.0743 12.7307 11.9485 11.9752 11.9485 11.0465C11.9485 10.1178 11.0743 9.3623 9.99965 9.3623Z" fill="#f1f5f9"/>
</g>
<defs>
<clipPath id="clip0_882_331">
<rect width="20" height="17.284" fill="white"/>
</clipPath>
</defs>
</svg>
