<svg width="20" height="18" viewBox="0 0 20 18" fill="none" xmlns="http://www.w3.org/2000/svg">
<path d="M10.006 14.0298C10.006 14.3342 9.80245 14.6109 9.48387 14.74C9.36069 14.7903 9.2287 14.8147 9.09757 14.8147C8.88992 14.8147 8.68419 14.753 8.51802 14.6339L3.55274 11.0782H0.908231C0.406716 11.0786 0 10.7269 0 10.2935V7.16638C0 6.73278 0.406716 6.3813 0.908231 6.3813H3.55296L8.51824 2.8256C8.78953 2.63128 9.16572 2.58986 9.48408 2.7199C9.80245 2.84901 10.0062 3.12581 10.0062 3.43011L10.006 14.0298ZM13.4964 12.8033C13.4743 12.8046 13.453 12.8053 13.4311 12.8053C13.1912 12.8053 12.9599 12.7234 12.789 12.5755L12.6675 12.4702C12.3489 12.1954 12.3115 11.7602 12.5798 11.4477C13.26 10.6552 13.619 9.71574 13.619 8.73021C13.619 7.67019 13.2114 6.67593 12.4401 5.85482C12.1464 5.54272 12.1735 5.08943 12.5026 4.8052L12.6239 4.70024C12.8053 4.54345 13.0484 4.45799 13.3115 4.47155C13.5678 4.4827 13.807 4.58692 13.9696 4.75857C15.0394 5.88993 15.6046 7.26354 15.6046 8.7304C15.6046 10.0966 15.1048 11.397 14.1589 12.4904C14.0009 12.6727 13.7593 12.7871 13.4964 12.8033ZM17.2514 15.2289C17.0872 15.3967 16.8497 15.4974 16.5954 15.5067C16.5829 15.507 16.5702 15.5074 16.5573 15.5074C16.3168 15.5074 16.0859 15.4253 15.915 15.2776L15.7957 15.1745C15.4623 14.8865 15.4397 14.426 15.7428 14.1143C17.2076 12.6088 18.0146 10.6968 18.0146 8.73021C18.0146 6.68467 17.1506 4.71547 15.5824 3.18545C15.2645 2.87483 15.2806 2.40464 15.619 2.11112L15.7381 2.00802C15.9148 1.85457 16.1444 1.77004 16.4077 1.77729C16.6577 1.78342 16.8942 1.8789 17.0603 2.04053C18.9559 3.88488 20 6.26092 20 8.73021C20.0004 11.1061 19.0243 13.4141 17.2514 15.2289Z" fill="#f1f5f9"/>
</svg>
